<svg width="29" height="22" viewBox="0 0 29 22" fill="none" xmlns="http://www.w3.org/2000/svg">
    <path d="M19.0312 11.7812C19.0312 12.983 18.5539 14.1356 17.7041 14.9853C16.8543 15.8351 15.7018 16.3125 14.5 16.3125C13.2982 16.3125 12.1457 15.8351 11.2959 14.9853C10.4461 14.1356 9.96875 12.983 9.96875 11.7812C9.96875 10.5795 10.4461 9.42695 11.2959 8.57717C12.1457 7.7274 13.2982 7.25 14.5 7.25C15.7018 7.25 16.8543 7.7274 17.7041 8.57717C18.5539 9.42695 19.0312 10.5795 19.0312 11.7812Z" fill="white"/>
    <path d="M3.625 3.625C2.66359 3.625 1.74156 4.00692 1.06174 4.68674C0.381919 5.36656 0 6.28859 0 7.25L0 18.125C0 19.0864 0.381919 20.0084 1.06174 20.6883C1.74156 21.3681 2.66359 21.75 3.625 21.75H25.375C26.3364 21.75 27.2584 21.3681 27.9383 20.6883C28.6181 20.0084 29 19.0864 29 18.125V7.25C29 6.28859 28.6181 5.36656 27.9383 4.68674C27.2584 4.00692 26.3364 3.625 25.375 3.625H23.2508C22.2894 3.62479 21.3675 3.24274 20.6879 2.56288L19.1871 1.06212C18.5075 0.382258 17.5856 0.000205311 16.6242 0H12.3758C11.4144 0.000205311 10.4925 0.382258 9.81288 1.06212L8.31212 2.56288C7.63246 3.24274 6.71058 3.62479 5.74925 3.625H3.625ZM4.53125 7.25C4.2909 7.25 4.06039 7.15452 3.89043 6.98457C3.72048 6.81461 3.625 6.5841 3.625 6.34375C3.625 6.1034 3.72048 5.87289 3.89043 5.70293C4.06039 5.53298 4.2909 5.4375 4.53125 5.4375C4.7716 5.4375 5.00211 5.53298 5.17207 5.70293C5.34202 5.87289 5.4375 6.1034 5.4375 6.34375C5.4375 6.5841 5.34202 6.81461 5.17207 6.98457C5.00211 7.15452 4.7716 7.25 4.53125 7.25ZM20.8438 11.7812C20.8438 13.4637 20.1754 15.0773 18.9857 16.267C17.796 17.4566 16.1825 18.125 14.5 18.125C12.8175 18.125 11.204 17.4566 10.0143 16.267C8.82461 15.0773 8.15625 13.4637 8.15625 11.7812C8.15625 10.0988 8.82461 8.48523 10.0143 7.29554C11.204 6.10586 12.8175 5.4375 14.5 5.4375C16.1825 5.4375 17.796 6.10586 18.9857 7.29554C20.1754 8.48523 20.8437 10.0988 20.8438 11.7812Z" fill="white"/>
</svg>
