<svg width="348" height="96" viewBox="0 0 348 96" fill="none" xmlns="http://www.w3.org/2000/svg">
<g filter="url(#filter0_d_9_313)">
<path d="M9.10195 12.218V15.785H18.122V22.632H9.10195V26.732H19.352V33.989H-4.87976e-05V4.961H19.352V12.218H9.10195ZM34.5082 25.338L38.1982 10.865H47.8742L40.1662 33.989H28.8092L21.1012 10.865H30.7772L34.5082 25.338ZM72.675 22.222C72.675 22.8507 72.634 23.452 72.552 24.026H57.915C58.0517 26.0213 58.8853 27.019 60.416 27.019C61.4 27.019 62.1107 26.568 62.548 25.666H72.183C71.855 27.306 71.158 28.782 70.092 30.094C69.0533 31.3787 67.7277 32.4037 66.115 33.169C64.5297 33.907 62.7803 34.276 60.867 34.276C58.571 34.276 56.521 33.7977 54.717 32.841C52.9403 31.8843 51.5463 30.5177 50.535 28.741C49.551 26.937 49.059 24.8323 49.059 22.427C49.059 20.0217 49.551 17.9307 50.535 16.154C51.5463 14.35 52.9403 12.9697 54.717 12.013C56.521 11.0563 58.571 10.578 60.867 10.578C63.163 10.578 65.1993 11.0563 66.976 12.013C68.78 12.9423 70.174 14.2817 71.158 16.031C72.1693 17.7803 72.675 19.844 72.675 22.222ZM63.45 20.049C63.45 19.2837 63.204 18.7097 62.712 18.327C62.22 17.917 61.605 17.712 60.867 17.712C59.2543 17.712 58.3113 18.491 58.038 20.049H63.45ZM84.6557 15.129C85.585 13.7897 86.7193 12.7237 88.0587 11.931C89.398 11.111 90.792 10.701 92.2407 10.701V20.418H89.6577C87.9357 20.418 86.6647 20.7187 85.8447 21.32C85.052 21.9213 84.6557 22.9873 84.6557 24.518V33.989H75.5537V10.865H84.6557V15.129ZM120.809 10.865L106.008 45.059H96.0453L101.867 32.841L92.2323 10.865H102.359L106.705 22.591L110.764 10.865H120.809ZM136.83 26.24V33.989H133.386C127.045 33.989 123.874 30.832 123.874 24.518V18.45H121.004V10.865H123.874V5.289H132.976V10.865H136.748V18.45H132.976V24.682C132.976 25.2287 133.099 25.625 133.345 25.871C133.619 26.117 134.056 26.24 134.657 26.24H136.83ZM156.492 10.701C159.143 10.701 161.207 11.5893 162.683 13.366C164.186 15.1427 164.938 17.548 164.938 20.582V33.989H155.877V21.73C155.877 20.6367 155.576 19.7757 154.975 19.147C154.401 18.491 153.622 18.163 152.638 18.163C151.626 18.163 150.834 18.491 150.26 19.147C149.686 19.7757 149.399 20.6367 149.399 21.73V33.989H140.297V3.649H149.399V14.391C150.109 13.2977 151.052 12.4093 152.228 11.726C153.43 11.0427 154.852 10.701 156.492 10.701ZM173.477 9.02C171.891 9.02 170.62 8.59633 169.664 7.749C168.707 6.90166 168.229 5.83566 168.229 4.551C168.229 3.239 168.707 2.15933 169.664 1.312C170.62 0.43733 171.891 -3.8743e-06 173.477 -3.8743e-06C175.035 -3.8743e-06 176.292 0.43733 177.249 1.312C178.205 2.15933 178.684 3.239 178.684 4.551C178.684 5.83566 178.205 6.90166 177.249 7.749C176.292 8.59633 175.035 9.02 173.477 9.02ZM177.987 10.865V33.989H168.885V10.865H177.987ZM198.293 10.701C200.944 10.701 203.008 11.5893 204.484 13.366C205.987 15.1427 206.739 17.548 206.739 20.582V33.989H197.678V21.73C197.678 20.6367 197.377 19.7757 196.776 19.147C196.202 18.491 195.423 18.163 194.439 18.163C193.427 18.163 192.635 18.491 192.061 19.147C191.487 19.7757 191.2 20.6367 191.2 21.73V33.989H182.098V10.865H191.2V14.391C191.91 13.2977 192.853 12.4093 194.029 11.726C195.231 11.0427 196.653 10.701 198.293 10.701ZM219.008 10.578C220.512 10.578 221.81 10.8923 222.903 11.521C223.997 12.1223 224.83 12.956 225.404 14.022V10.865H234.466V33.579C234.466 35.7383 234.069 37.7063 233.276 39.483C232.484 41.2597 231.199 42.681 229.422 43.747C227.673 44.813 225.418 45.346 222.657 45.346C218.94 45.346 215.988 44.4713 213.801 42.722C211.642 41 210.412 38.6493 210.111 35.67H219.049C219.295 36.8727 220.279 37.474 222.001 37.474C223.067 37.474 223.901 37.2007 224.502 36.654C225.104 36.1073 225.404 35.0823 225.404 33.579V30.832C224.83 31.898 223.997 32.7453 222.903 33.374C221.81 33.9753 220.512 34.276 219.008 34.276C217.204 34.276 215.578 33.8113 214.129 32.882C212.681 31.9253 211.533 30.5587 210.685 28.782C209.865 26.978 209.455 24.8597 209.455 22.427C209.455 19.9943 209.865 17.8897 210.685 16.113C211.533 14.309 212.681 12.9423 214.129 12.013C215.578 11.0563 217.204 10.578 219.008 10.578ZM225.404 22.427C225.404 21.197 225.09 20.2403 224.461 19.557C223.833 18.8737 223.026 18.532 222.042 18.532C221.058 18.532 220.252 18.8737 219.623 19.557C218.995 20.2403 218.68 21.197 218.68 22.427C218.68 23.657 218.995 24.6137 219.623 25.297C220.252 25.9803 221.058 26.322 222.042 26.322C223.026 26.322 223.833 25.9803 224.461 25.297C225.09 24.6137 225.404 23.657 225.404 22.427ZM273.358 33.989H264.256L254.621 19.393V33.989H245.519V4.961H254.621L264.256 19.803V4.961H273.358V33.989ZM299.857 22.222C299.857 22.8507 299.816 23.452 299.734 24.026H285.097C285.233 26.0213 286.067 27.019 287.598 27.019C288.582 27.019 289.292 26.568 289.73 25.666H299.365C299.037 27.306 298.34 28.782 297.274 30.094C296.235 31.3787 294.909 32.4037 293.297 33.169C291.711 33.907 289.962 34.276 288.049 34.276C285.753 34.276 283.703 33.7977 281.899 32.841C280.122 31.8843 278.728 30.5177 277.717 28.741C276.733 26.937 276.241 24.8323 276.241 22.427C276.241 20.0217 276.733 17.9307 277.717 16.154C278.728 14.35 280.122 12.9697 281.899 12.013C283.703 11.0563 285.753 10.578 288.049 10.578C290.345 10.578 292.381 11.0563 294.158 12.013C295.962 12.9423 297.356 14.2817 298.34 16.031C299.351 17.7803 299.857 19.844 299.857 22.222ZM290.632 20.049C290.632 19.2837 290.386 18.7097 289.894 18.327C289.402 17.917 288.787 17.712 288.049 17.712C286.436 17.712 285.493 18.491 285.22 20.049H290.632ZM301.505 22.427C301.505 19.9943 301.915 17.8897 302.735 16.113C303.583 14.309 304.731 12.9423 306.179 12.013C307.628 11.0563 309.254 10.578 311.058 10.578C312.562 10.578 313.86 10.8923 314.953 11.521C316.047 12.1223 316.88 12.956 317.454 14.022V10.865H326.515V33.989H317.454V30.832C316.88 31.898 316.047 32.7453 314.953 33.374C313.86 33.9753 312.562 34.276 311.058 34.276C309.254 34.276 307.628 33.8113 306.179 32.882C304.731 31.9253 303.583 30.5587 302.735 28.782C301.915 26.978 301.505 24.8597 301.505 22.427ZM317.454 22.427C317.454 21.197 317.14 20.2403 316.511 19.557C315.883 18.8737 315.076 18.532 314.092 18.532C313.108 18.532 312.302 18.8737 311.673 19.557C311.045 20.2403 310.73 21.197 310.73 22.427C310.73 23.657 311.045 24.6137 311.673 25.297C312.302 25.9803 313.108 26.322 314.092 26.322C315.076 26.322 315.883 25.9803 316.511 25.297C317.14 24.6137 317.454 23.657 317.454 22.427ZM339.704 15.129C340.634 13.7897 341.768 12.7237 343.107 11.931C344.447 11.111 345.841 10.701 347.289 10.701V20.418H344.706C342.984 20.418 341.713 20.7187 340.893 21.32C340.101 21.9213 339.704 22.9873 339.704 24.518V33.989H330.602V10.865H339.704V15.129ZM147.557 59.961L137.143 80.174V88.989H128.041V80.174L117.627 59.961H128.041L132.674 70.252L137.307 59.961H147.557ZM163.771 89.276C161.038 89.276 158.523 88.6337 156.227 87.349C153.958 86.0643 152.154 84.2877 150.815 82.019C149.476 79.7503 148.806 77.1947 148.806 74.352C148.806 71.5093 149.476 68.9537 150.815 66.685C152.154 64.4163 153.958 62.6533 156.227 61.396C158.523 60.1113 161.038 59.469 163.771 59.469C166.504 59.469 169.005 60.1113 171.274 61.396C173.543 62.6533 175.333 64.4163 176.645 66.685C177.984 68.9537 178.654 71.5093 178.654 74.352C178.654 77.1947 177.984 79.7503 176.645 82.019C175.333 84.2877 173.529 86.0643 171.233 87.349C168.964 88.6337 166.477 89.276 163.771 89.276ZM163.771 80.789C165.575 80.789 166.969 80.215 167.953 79.067C168.937 77.8917 169.429 76.32 169.429 74.352C169.429 72.3567 168.937 70.785 167.953 69.637C166.969 68.4617 165.575 67.874 163.771 67.874C161.94 67.874 160.532 68.4617 159.548 69.637C158.564 70.785 158.072 72.3567 158.072 74.352C158.072 76.32 158.564 77.8917 159.548 79.067C160.532 80.215 161.94 80.789 163.771 80.789ZM190.834 59.961V76.32C190.834 77.6593 191.121 78.7253 191.695 79.518C192.297 80.2833 193.253 80.666 194.565 80.666C195.877 80.666 196.848 80.2833 197.476 79.518C198.105 78.7253 198.419 77.6593 198.419 76.32V59.961H207.48V76.32C207.48 79.0807 206.906 81.445 205.758 83.413C204.61 85.3537 203.039 86.816 201.043 87.8C199.048 88.784 196.82 89.276 194.36 89.276C191.9 89.276 189.714 88.784 187.8 87.8C185.914 86.816 184.438 85.3537 183.372 83.413C182.306 81.4723 181.773 79.108 181.773 76.32V59.961H190.834ZM223.665 58.034L222.599 77.468H214.809L213.743 58.034H223.665ZM218.704 89.317C217.119 89.317 215.848 88.8933 214.891 88.046C213.935 87.1987 213.456 86.1327 213.456 84.848C213.456 83.536 213.935 82.4563 214.891 81.609C215.848 80.7343 217.119 80.297 218.704 80.297C220.262 80.297 221.52 80.7343 222.476 81.609C223.433 82.4563 223.911 83.536 223.911 84.848C223.911 86.1327 223.433 87.1987 222.476 88.046C221.52 88.8933 220.262 89.317 218.704 89.317Z" fill="white"/>
</g>
<defs>
<filter id="filter0_d_9_313" x="0" y="0" width="347.29" height="95.317" filterUnits="userSpaceOnUse" color-interpolation-filters="sRGB">
<feFlood flood-opacity="0" result="BackgroundImageFix"/>
<feColorMatrix in="SourceAlpha" type="matrix" values="0 0 0 0 0 0 0 0 0 0 0 0 0 0 0 0 0 0 127 0" result="hardAlpha"/>
<feOffset dy="6"/>
<feComposite in2="hardAlpha" operator="out"/>
<feColorMatrix type="matrix" values="0 0 0 0 0.737255 0 0 0 0 1 0 0 0 0 0.368627 0 0 0 0.2 0"/>
<feBlend mode="normal" in2="BackgroundImageFix" result="effect1_dropShadow_9_313"/>
<feBlend mode="normal" in="SourceGraphic" in2="effect1_dropShadow_9_313" result="shape"/>
</filter>
</defs>
</svg>
