<svg width="119" height="144" viewBox="0 0 119 144" fill="none" xmlns="http://www.w3.org/2000/svg">
<path d="M-24.6367 40.6668C-22.549 39.4298 -20.1379 38.7261 -17.659 38.9525C-15.1865 39.1784 -12.6109 40.3324 -10.1883 42.8735L-10.188 42.8744C-7.62205 45.5536 -6.83224 48.9601 -7.13484 52.6489C-7.43819 56.3464 -8.83818 60.2993 -10.6181 64.0076C-12.396 67.7117 -14.5403 71.1479 -16.3112 73.8091C-17.1966 75.1397 -17.9869 76.2733 -18.5923 77.1528C-18.8943 77.5914 -19.1519 77.9694 -19.351 78.2747C-19.4467 78.4214 -19.5325 78.5566 -19.6045 78.6772C-19.7562 78.6308 -19.9296 78.5859 -20.1181 78.542C-20.4867 78.4562 -20.9454 78.3662 -21.4764 78.2688C-22.0079 78.1712 -22.6175 78.0647 -23.2889 77.9475C-23.9613 77.8302 -24.6977 77.7012 -25.484 77.5574C-28.631 76.9822 -32.5795 76.1697 -36.4639 74.9117C-40.3524 73.6523 -44.1496 71.9546 -47.0113 69.6232C-49.8652 67.2981 -51.7707 64.3593 -51.9383 60.5953C-52.0888 57.1742 -51.1731 54.5526 -49.6684 52.6214C-48.1604 50.686 -46.0402 49.4169 -43.7414 48.7444C-41.4411 48.0716 -38.9772 48.0011 -36.8092 48.4477C-34.6359 48.8955 -32.7986 49.8538 -31.7039 51.2001L-31.0065 50.8786C-31.2935 49.3143 -30.7749 47.3945 -29.6224 45.5266C-28.4747 43.6664 -26.7255 41.9044 -24.6367 40.6668ZM-40.8463 50.8987C-42.8681 51.502 -44.7744 52.6136 -46.1553 54.3097C-47.5399 56.0106 -48.3773 58.2768 -48.2913 61.1468C-48.2153 64.4066 -46.5505 66.8914 -44.1191 68.7839C-41.697 70.6691 -38.4939 71.9849 -35.2676 72.9314C-32.0365 73.8792 -28.7518 74.4652 -26.1505 74.8751C-24.8374 75.082 -23.728 75.2393 -22.8486 75.381C-22.4135 75.4511 -22.0487 75.5155 -21.762 75.5765C-21.4661 75.6394 -21.2839 75.6931 -21.1942 75.7344L-20.8462 75.8943L-20.6753 75.5523C-20.6314 75.4648 -20.5287 75.3045 -20.3598 75.0609C-20.1953 74.8236 -19.9807 74.5259 -19.7238 74.1724C-19.2111 73.4671 -18.5356 72.546 -17.7786 71.4668C-16.2647 69.3083 -14.4179 66.5068 -12.8707 63.487C-11.3258 60.4719 -10.0659 57.213 -9.74757 54.1441C-9.42826 51.0655 -10.0558 48.1442 -12.328 45.8781C-14.3865 43.8007 -16.6436 42.8532 -18.8623 42.7086C-21.074 42.5644 -23.2171 43.2197 -25.0583 44.2947C-26.8989 45.3693 -28.4558 46.8737 -29.4996 48.4577C-30.3011 49.674 -30.8188 50.9689 -30.9015 52.1707C-31.9162 51.3533 -33.2783 50.8047 -34.7715 50.5363C-36.6709 50.1951 -38.8251 50.2956 -40.8463 50.8987Z" stroke="white" stroke-opacity="0.45" stroke-width="0.792053"/>
<path d="M34.7322 2.07596C36.5687 0.987861 38.6894 0.368446 40.87 0.567587C43.0452 0.766275 45.3115 1.78212 47.4428 4.01782L47.4432 4.01872C49.7002 6.37553 50.3947 9.37193 50.1285 12.6169C49.8616 15.8695 48.63 19.3463 47.0643 22.6084C45.5003 25.867 43.6138 28.8901 42.0559 31.2313C41.2771 32.4017 40.5822 33.3992 40.0497 34.1729C39.7841 34.5587 39.5573 34.891 39.3822 35.1596C39.2981 35.2886 39.2222 35.4071 39.1589 35.5132C39.0255 35.4724 38.873 35.4327 38.7073 35.3941C38.383 35.3186 37.9794 35.2391 37.5123 35.1533C37.0447 35.0675 36.5078 34.9746 35.917 34.8715C35.3255 34.7683 34.6785 34.6545 33.9868 34.5281C31.2185 34.022 27.7452 33.3076 24.3283 32.2009C20.9075 31.0931 17.5666 29.5996 15.0491 27.5485C12.5386 25.5031 10.8621 22.9181 10.7148 19.6069C10.5824 16.5974 11.3881 14.2911 12.7118 12.5922C14.0385 10.8895 15.9043 9.77343 17.9267 9.18191C19.9502 8.59011 22.1169 8.52744 24.024 8.9203C25.936 9.31417 27.5528 10.1577 28.5158 11.3421L29.1281 11.0599C28.8755 9.68392 29.3322 7.99455 30.346 6.35133C31.3557 4.71496 32.8947 3.16473 34.7322 2.07596ZM20.473 11.0769C18.6944 11.6076 17.0173 12.5857 15.8026 14.0778C14.5846 15.5741 13.8474 17.5674 13.9231 20.092C13.9899 22.9596 15.4549 25.1453 17.5937 26.81C19.7245 28.4685 22.5424 29.6262 25.3807 30.4589C28.2232 31.2927 31.1128 31.8084 33.4013 32.1689C34.5563 32.3509 35.5317 32.4899 36.3053 32.6146C36.6879 32.6762 37.0086 32.7325 37.2608 32.7861C37.5212 32.8415 37.6812 32.889 37.7601 32.9253L38.066 33.066L38.2169 32.7643C38.2555 32.6873 38.3457 32.5467 38.4941 32.3326C38.6388 32.1239 38.8274 31.862 39.0535 31.5509C39.5044 30.9305 40.0992 30.1199 40.7652 29.1704C42.097 27.2717 43.7215 24.8073 45.0826 22.1511C46.4416 19.4987 47.5498 16.6317 47.8298 13.9321C48.1019 11.3085 47.5925 8.81507 45.7432 6.8494L45.5602 6.66078C43.7493 4.83315 41.7635 3.99998 39.8117 3.87276C37.866 3.74598 35.9807 4.32209 34.361 5.26773C32.7419 6.21303 31.3719 7.53592 30.4537 8.92925C29.7486 9.99927 29.2937 11.1387 29.221 12.196C28.3282 11.4769 27.1297 10.9938 25.8161 10.7578C24.1454 10.4577 22.2509 10.5465 20.473 11.0769Z" stroke="white" stroke-opacity="0.45" stroke-width="0.696761"/>
<mask id="path-3-inside-1_76_16" fill="white">
<path d="M41.8592 11.25C36.6995 5.87081 30.0357 12.1056 30.6915 15.6119C28.2224 12.6483 19.4369 13.3497 19.796 20.6153C20.1611 28.7866 35.5924 29.6543 36.9259 30.2993C37.4699 29.0844 47.4291 17.0606 41.8592 11.25Z"/>
</mask>
<path d="M30.6915 15.6119L30.1561 16.0579L31.868 18.1126L31.3764 15.4839L30.6915 15.6119ZM19.796 20.6153L20.4921 20.5842L20.4919 20.5809L19.796 20.6153ZM36.9259 30.2993L36.6225 30.9266L37.2685 31.2391L37.5618 30.5841L36.9259 30.2993ZM41.8592 11.25L42.362 10.7677C40.9672 9.31354 39.4307 8.6083 37.906 8.47501C36.3924 8.3427 34.952 8.77886 33.7386 9.49992C32.5272 10.2198 31.5133 11.2398 30.8413 12.3288C30.178 13.4035 29.7989 14.6295 30.0066 15.74L30.6915 15.6119L31.3764 15.4839C31.2562 14.8412 31.4641 13.973 32.0271 13.0606C32.5814 12.1625 33.4329 11.3026 34.4505 10.6979C35.4661 10.0943 36.618 9.76125 37.7846 9.86324C38.94 9.96424 40.1713 10.4968 41.3563 11.7323L41.8592 11.25ZM30.6915 15.6119L31.2268 15.1659C30.4766 14.2654 29.2999 13.6965 28.036 13.439C26.7624 13.1794 25.3296 13.2199 23.9892 13.6084C22.6466 13.9976 21.3688 14.745 20.4502 15.9232C19.5254 17.1094 19.0029 18.6841 19.1001 20.6496L19.796 20.6153L20.4919 20.5809C20.4095 18.9136 20.8506 17.6761 21.5492 16.78C22.2541 15.8758 23.2596 15.2708 24.3771 14.9469C25.4968 14.6223 26.7009 14.589 27.7578 14.8044C28.8244 15.0218 29.6718 15.4766 30.1561 16.0579L30.6915 15.6119ZM19.796 20.6153L19.0999 20.6464C19.2023 22.9374 20.3694 24.6943 21.9983 26.0246C23.6133 27.3437 25.7112 28.2711 27.783 28.9425C29.8621 29.6162 31.9631 30.047 33.6128 30.3486C34.4855 30.5081 35.1083 30.6102 35.6957 30.7184C35.9681 30.7686 36.189 30.8125 36.3584 30.8524C36.4429 30.8722 36.5084 30.8896 36.5575 30.9045C36.6101 30.9206 36.627 30.9288 36.6225 30.9266L36.9259 30.2993L37.2293 29.6721C37.0698 29.595 36.864 29.5397 36.6771 29.4958C36.4739 29.448 36.2261 29.3992 35.9482 29.348C35.435 29.2534 34.6307 29.118 33.8634 28.9778C32.2333 28.6798 30.2036 28.262 28.2126 27.6168C26.2142 26.9692 24.3025 26.1073 22.8798 24.9453C21.4709 23.7946 20.5722 22.3788 20.4921 20.5842L19.796 20.6153ZM36.9259 30.2993L37.5618 30.5841C37.5615 30.5848 37.5642 30.5787 37.572 30.5644C37.5794 30.5505 37.5897 30.5323 37.6035 30.509C37.6313 30.462 37.6686 30.4023 37.7165 30.3286C37.8125 30.1807 37.94 29.9932 38.0968 29.7648C38.4078 29.3122 38.8243 28.7134 39.2898 28.0131C40.2208 26.6124 41.3626 24.7833 42.3136 22.7992C43.261 20.8223 44.0404 18.6481 44.2091 16.5632C44.3791 14.4628 43.9301 12.4036 42.3622 10.7678L41.8592 11.25L41.3562 11.7321C42.5732 13.0017 42.968 14.6245 42.8202 16.4507C42.6711 18.2925 41.971 20.2897 41.0569 22.1969C40.1463 24.097 39.0444 25.8648 38.1292 27.2418C37.6715 27.9304 37.2643 28.5157 36.9482 28.9758C36.7915 29.2039 36.6547 29.4049 36.5478 29.5695C36.4489 29.7219 36.3491 29.8825 36.29 30.0146L36.9259 30.2993Z" fill="white" fill-opacity="0.45" mask="url(#path-3-inside-1_76_16)"/>
<path d="M27.8018 63.9286C29.843 62.7192 32.2002 62.0315 34.6239 62.2528C37.0415 62.4737 39.5597 63.6025 41.9284 66.0874L41.9293 66.087C44.4381 68.7065 45.2105 72.0375 44.9146 75.6442C44.618 79.2593 43.2487 83.1238 41.5084 86.7495C39.7701 90.3712 37.6729 93.731 35.9413 96.333C35.0756 97.634 34.3035 98.743 33.7116 99.6029C33.4164 100.032 33.1645 100.401 32.9699 100.7C32.8764 100.843 32.7921 100.975 32.7218 101.092C32.5736 101.047 32.4043 101.003 32.2202 100.961C31.8598 100.877 31.411 100.788 30.8918 100.693C30.372 100.597 29.7753 100.494 29.1186 100.379C28.4612 100.264 27.7416 100.138 26.9728 99.9978C23.8959 99.4354 20.0355 98.6415 16.2378 97.4115C12.4358 96.1802 8.72265 94.5196 5.92463 92.24C3.13441 89.9667 1.27177 87.0926 1.10814 83.4124L1.10686 83.4119C0.959965 80.0677 1.8565 77.5049 3.32751 75.617C4.80193 73.7247 6.87506 72.4842 9.12265 71.8267C11.3718 71.1689 13.7807 71.0995 15.9005 71.5362C18.0253 71.9739 19.8215 72.9113 20.8918 74.2276L21.5734 73.9138C21.2928 72.3845 21.8005 70.5071 22.9274 68.6807C24.0495 66.862 25.7595 65.1387 27.8018 63.9286ZM11.9529 73.9332C9.97611 74.5231 8.11244 75.61 6.76244 77.2684C5.40866 78.9315 4.58985 81.1466 4.67401 83.9527C4.74829 87.1399 6.37578 89.57 8.75301 91.4203C11.1213 93.2636 14.2536 94.5497 17.4082 95.4751C20.5675 96.4019 23.7788 96.9748 26.3223 97.3756C27.6061 97.5778 28.6907 97.7317 29.5505 97.8703C29.9757 97.9388 30.3318 98.002 30.612 98.0616C30.9013 98.1231 31.0796 98.1748 31.1673 98.2152L31.5076 98.372L31.6755 98.0377C31.7184 97.9522 31.8178 97.7952 31.9829 97.5571C32.1437 97.3252 32.3537 97.0341 32.605 96.6883C33.1062 95.9988 33.7676 95.0985 34.5078 94.0432C35.988 91.9328 37.7927 89.1931 39.3054 86.2407C40.8159 83.2927 42.0487 80.1067 42.36 77.1062C42.6722 74.0961 42.058 71.2397 39.8363 69.024C37.8237 66.993 35.6169 66.0667 33.4478 65.9252C31.2852 65.7843 29.1898 66.4252 27.3896 67.4762C25.59 68.5269 24.0683 69.9974 23.0477 71.5461C22.264 72.7352 21.7573 74.0011 21.6764 75.1761C20.6842 74.377 19.352 73.8409 17.892 73.5786C16.035 73.245 13.929 73.3436 11.9529 73.9332Z" stroke="white" stroke-opacity="0.45" stroke-width="0.774412"/>
<mask id="path-6-inside-2_76_16" fill="white">
<path d="M35.7232 74.1244C29.9885 68.1457 22.5821 75.0753 23.3109 78.9724C20.5666 75.6785 10.8021 76.4581 11.2012 84.5334C11.6069 93.6153 28.758 94.5798 30.2401 95.2967C30.8448 93.9464 41.9138 80.5825 35.7232 74.1244Z"/>
</mask>
<path d="M23.3109 78.9724L22.7159 79.4681L24.6185 81.7518L24.0721 78.8301L23.3109 78.9724ZM11.2012 84.5334L11.9748 84.4988L11.9746 84.4951L11.2012 84.5334ZM30.2401 95.2967L29.9029 95.9939L30.621 96.3412L30.9469 95.6132L30.2401 95.2967ZM35.7232 74.1244L36.2821 73.5883C34.7319 71.9721 33.0241 71.1883 31.3294 71.0401C29.6472 70.8931 28.0462 71.3778 26.6976 72.1793C25.3512 72.9794 24.2243 74.1131 23.4774 75.3234C22.7402 76.5179 22.3188 77.8805 22.5497 79.1148L23.3109 78.9724L24.0721 78.8301C23.9385 78.1159 24.1696 77.1508 24.7954 76.1368C25.4115 75.1386 26.3579 74.1828 27.4889 73.5107C28.6176 72.8399 29.8979 72.4697 31.1945 72.5831C32.4787 72.6953 33.8472 73.2873 35.1643 74.6604L35.7232 74.1244ZM23.3109 78.9724L23.9059 78.4767C23.072 77.4759 21.7642 76.8436 20.3595 76.5573C18.944 76.2688 17.3515 76.3138 15.8617 76.7457C14.3695 77.1782 12.9492 78.0089 11.9283 79.3184C10.9004 80.6368 10.3197 82.387 10.4277 84.5716L11.2012 84.5334L11.9746 84.4951C11.883 82.6421 12.3733 81.2666 13.1498 80.2707C13.9332 79.2658 15.0507 78.5933 16.2929 78.2332C17.5373 77.8725 18.8756 77.8355 20.0502 78.0749C21.2358 78.3165 22.1776 78.822 22.7159 79.4681L23.3109 78.9724ZM11.2012 84.5334L10.4275 84.5679C10.5413 87.1143 11.8385 89.067 13.6489 90.5456C15.4439 92.0116 17.7756 93.0424 20.0783 93.7886C22.3891 94.5375 24.7242 95.0163 26.5578 95.3514C27.5277 95.5287 28.22 95.6422 28.8728 95.7625C29.1755 95.8183 29.4211 95.8671 29.6094 95.9114C29.7033 95.9334 29.7761 95.9527 29.8306 95.9693C29.8891 95.9872 29.908 95.9963 29.9029 95.9939L30.2401 95.2967L30.5774 94.5996C30.4001 94.5138 30.1713 94.4524 29.9636 94.4036C29.7377 94.3505 29.4624 94.2962 29.1535 94.2393C28.5831 94.1342 27.6891 93.9837 26.8363 93.8278C25.0246 93.4967 22.7687 93.0324 20.5557 92.3152C18.3346 91.5955 16.2099 90.6375 14.6286 89.346C13.0627 88.067 12.0639 86.4935 11.9748 84.4988L11.2012 84.5334ZM30.2401 95.2967L30.9469 95.6132C30.9466 95.6139 30.9496 95.6072 30.9582 95.5913C30.9665 95.5759 30.9779 95.5556 30.9932 95.5297C31.0241 95.4774 31.0656 95.4111 31.1188 95.3292C31.2255 95.1649 31.3673 94.9564 31.5416 94.7026C31.8872 94.1995 32.3501 93.534 32.8674 92.7557C33.9023 91.1988 35.1713 89.1659 36.2282 86.9607C37.2813 84.7634 38.1475 82.347 38.3351 80.0297C38.524 77.6952 38.025 75.4065 36.2823 73.5885L35.7232 74.1244L35.1642 74.6603C36.5168 76.0713 36.9556 77.8749 36.7913 79.9047C36.6256 81.9517 35.8475 84.1715 34.8315 86.2913C33.8194 88.4031 32.5948 90.368 31.5776 91.8984C31.0688 92.6638 30.6162 93.3143 30.2649 93.8257C30.0908 94.0792 29.9387 94.3026 29.8199 94.4855C29.7099 94.6549 29.5991 94.8334 29.5333 94.9802L30.2401 95.2967Z" fill="white" fill-opacity="0.45" mask="url(#path-6-inside-2_76_16)"/>
<path d="M91.7322 33.076C93.5687 31.9879 95.6894 31.3684 97.87 31.5676C100.045 31.7663 102.312 32.7821 104.443 35.0178L104.443 35.0187C106.7 37.3755 107.395 40.3719 107.129 43.6169C106.862 46.8695 105.63 50.3463 104.064 53.6084C102.5 56.867 100.614 59.8901 99.0559 62.2313C98.2771 63.4017 97.5822 64.3992 97.0497 65.1729C96.7841 65.5587 96.5573 65.891 96.3822 66.1596C96.2981 66.2886 96.2222 66.4071 96.1589 66.5132C96.0255 66.4724 95.873 66.4327 95.7073 66.3941C95.383 66.3186 94.9794 66.2391 94.5123 66.1533C94.0447 66.0675 93.5078 65.9746 92.917 65.8715C92.3255 65.7683 91.6785 65.6545 90.9868 65.5281C88.2185 65.022 84.7452 64.3076 81.3283 63.2009C77.9075 62.0931 74.5666 60.5996 72.0491 58.5485C69.5386 56.5031 67.8621 53.9181 67.7148 50.6069C67.5824 47.5974 68.3881 45.2911 69.7118 43.5922C71.0385 41.8895 72.9043 40.7734 74.9267 40.1819C76.9502 39.5901 79.1169 39.5274 81.024 39.9203C82.936 40.3142 84.5528 41.1577 85.5158 42.3421L86.1281 42.0599C85.8755 40.6839 86.3322 38.9945 87.346 37.3513C88.3557 35.715 89.8947 34.1647 91.7322 33.076ZM77.473 42.0769C75.6944 42.6076 74.0173 43.5857 72.8026 45.0778C71.5846 46.5741 70.8474 48.5674 70.9231 51.092C70.9899 53.9596 72.4549 56.1453 74.5937 57.81C76.7245 59.4685 79.5424 60.6262 82.3807 61.4589C85.2232 62.2927 88.1128 62.8084 90.4013 63.1689C91.5563 63.3509 92.5317 63.4899 93.3053 63.6146C93.6879 63.6762 94.0086 63.7325 94.2608 63.7861C94.5212 63.8415 94.6812 63.889 94.7601 63.9253L95.066 64.066L95.2169 63.7643C95.2555 63.6873 95.3457 63.5467 95.4941 63.3326C95.6388 63.1239 95.8274 62.862 96.0535 62.5509C96.5044 61.9305 97.0992 61.1199 97.7652 60.1704C99.097 58.2717 100.722 55.8073 102.083 53.1511C103.442 50.4987 104.55 47.6317 104.83 44.9321C105.102 42.3085 104.593 39.8151 102.743 37.8494L102.56 37.6608C100.749 35.8332 98.7635 35 96.8117 34.8728C94.866 34.746 92.9807 35.3221 91.361 36.2677C89.7419 37.213 88.3719 38.5359 87.4537 39.9292C86.7486 40.9993 86.2937 42.1387 86.221 43.196C85.3282 42.4769 84.1297 41.9938 82.8161 41.7578C81.1454 41.4577 79.2509 41.5465 77.473 42.0769Z" stroke="white" stroke-opacity="0.45" stroke-width="0.696761"/>
<mask id="path-9-inside-3_76_16" fill="white">
<path d="M98.8592 42.25C93.6995 36.8708 87.0357 43.1056 87.6915 46.6119C85.2224 43.6483 76.4369 44.3497 76.796 51.6153C77.1611 59.7866 92.5924 60.6543 93.9259 61.2993C94.4699 60.0844 104.429 48.0606 98.8592 42.25Z"/>
</mask>
<path d="M87.6915 46.6119L87.1561 47.0579L88.868 49.1126L88.3764 46.4839L87.6915 46.6119ZM76.796 51.6153L77.4921 51.5842L77.4919 51.5809L76.796 51.6153ZM93.9259 61.2993L93.6225 61.9266L94.2685 62.2391L94.5618 61.5841L93.9259 61.2993ZM98.8592 42.25L99.362 41.7677C97.9672 40.3135 96.4307 39.6083 94.906 39.475C93.3924 39.3427 91.952 39.7789 90.7386 40.4999C89.5272 41.2198 88.5133 42.2398 87.8413 43.3288C87.178 44.4035 86.7989 45.6295 87.0066 46.74L87.6915 46.6119L88.3764 46.4839C88.2562 45.8412 88.4641 44.973 89.0271 44.0606C89.5814 43.1625 90.4329 42.3026 91.4505 41.6979C92.4661 41.0943 93.618 40.7613 94.7846 40.8632C95.94 40.9642 97.1713 41.4968 98.3563 42.7323L98.8592 42.25ZM87.6915 46.6119L88.2268 46.1659C87.4766 45.2654 86.2999 44.6965 85.036 44.439C83.7624 44.1794 82.3296 44.2199 80.9892 44.6084C79.6466 44.9976 78.3688 45.745 77.4502 46.9232C76.5254 48.1094 76.0029 49.6841 76.1001 51.6496L76.796 51.6153L77.4919 51.5809C77.4095 49.9136 77.8506 48.6761 78.5492 47.78C79.2541 46.8758 80.2596 46.2708 81.3771 45.9469C82.4968 45.6223 83.7009 45.589 84.7578 45.8044C85.8244 46.0218 86.6718 46.4766 87.1561 47.0579L87.6915 46.6119ZM76.796 51.6153L76.0999 51.6464C76.2023 53.9374 77.3694 55.6943 78.9983 57.0246C80.6133 58.3437 82.7112 59.2711 84.783 59.9425C86.8621 60.6162 88.9631 61.047 90.6128 61.3486C91.4855 61.5081 92.1083 61.6102 92.6957 61.7184C92.9681 61.7686 93.189 61.8125 93.3584 61.8524C93.4429 61.8722 93.5084 61.8896 93.5575 61.9045C93.6101 61.9206 93.627 61.9288 93.6225 61.9266L93.9259 61.2993L94.2293 60.6721C94.0698 60.595 93.864 60.5397 93.6771 60.4958C93.4739 60.448 93.2261 60.3992 92.9482 60.348C92.435 60.2534 91.6307 60.118 90.8634 59.9778C89.2333 59.6798 87.2036 59.262 85.2126 58.6168C83.2142 57.9692 81.3025 57.1073 79.8798 55.9453C78.4709 54.7946 77.5722 53.3788 77.4921 51.5842L76.796 51.6153ZM93.9259 61.2993L94.5618 61.5841C94.5615 61.5848 94.5642 61.5787 94.572 61.5644C94.5794 61.5505 94.5897 61.5323 94.6035 61.509C94.6313 61.462 94.6686 61.4023 94.7165 61.3286C94.8125 61.1807 94.94 60.9932 95.0968 60.7648C95.4078 60.3122 95.8243 59.7134 96.2898 59.0131C97.2208 57.6124 98.3626 55.7833 99.3136 53.7992C100.261 51.8223 101.04 49.6481 101.209 47.5632C101.379 45.4628 100.93 43.4036 99.3622 41.7678L98.8592 42.25L98.3562 42.7321C99.5732 44.0017 99.968 45.6245 99.8202 47.4507C99.6711 49.2925 98.971 51.2897 98.0569 53.1969C97.1463 55.097 96.0444 56.8648 95.1292 58.2418C94.6715 58.9304 94.2643 59.5157 93.9482 59.9758C93.7915 60.2039 93.6547 60.4049 93.5478 60.5695C93.4489 60.7219 93.3491 60.8825 93.29 61.0146L93.9259 61.2993Z" fill="white" fill-opacity="0.45" mask="url(#path-9-inside-3_76_16)"/>
<path d="M90.9823 94.4389C93.1104 93.178 95.5686 92.4608 98.0955 92.6916C100.616 92.9219 103.242 94.0985 105.711 96.689L105.711 96.6899C108.327 99.4209 109.132 102.893 108.823 106.653C108.514 110.422 107.086 114.451 105.272 118.231C103.46 122.007 101.274 125.51 99.4686 128.223C98.5661 129.579 97.7612 130.735 97.1441 131.632C96.8363 132.079 96.5731 132.464 96.3701 132.775C96.2728 132.924 96.1855 133.062 96.1122 133.185C95.9577 133.137 95.7811 133.092 95.5891 133.047C95.2134 132.959 94.7454 132.867 94.2041 132.768C93.6622 132.669 93.0406 132.56 92.356 132.441C91.6705 132.321 90.9202 132.19 90.1185 132.043C86.9106 131.457 82.8856 130.629 78.9261 129.347C74.9625 128.063 71.092 126.332 68.175 123.956C65.2658 121.586 63.3233 118.59 63.1526 114.753C62.9991 111.266 63.9324 108.593 65.4662 106.625C67.0035 104.652 69.1656 103.358 71.509 102.673C73.8537 101.987 76.3644 101.915 78.5742 102.37C80.7898 102.826 82.663 103.804 83.779 105.176L84.4886 104.849C84.196 103.254 84.7262 101.297 85.901 99.3934C87.0709 97.4973 88.8531 95.7006 90.9823 94.4389ZM74.4589 104.869C72.3979 105.484 70.4552 106.618 69.0477 108.346C67.6362 110.08 66.7824 112.39 66.8702 115.316C66.9478 118.638 68.6447 121.171 71.1229 123.1C73.592 125.022 76.8577 126.364 80.1466 127.328C83.4404 128.295 86.7882 128.892 89.4399 129.31C90.7784 129.521 91.909 129.681 92.8055 129.826C93.2488 129.897 93.6203 129.962 93.9125 130.024C94.2143 130.088 94.4 130.144 94.4914 130.186L94.8458 130.348L95.0211 129.999C95.066 129.91 95.1705 129.747 95.3424 129.499C95.51 129.257 95.7285 128.954 95.9904 128.594C96.513 127.875 97.2017 126.935 97.9734 125.835C99.5167 123.635 101.399 120.779 102.976 117.7C104.551 114.627 105.836 111.306 106.161 108.178C106.476 105.138 105.885 102.248 103.742 99.9703L103.53 99.7514C101.432 97.6336 99.1306 96.6676 96.8689 96.5201C94.6143 96.3732 92.4293 97.0415 90.5524 98.1373C88.6763 99.2327 87.0891 100.766 86.0251 102.38C85.2081 103.62 84.6809 104.94 84.5965 106.165C83.562 105.332 82.1735 104.772 80.6514 104.499C78.7153 104.151 76.5192 104.254 74.4589 104.869Z" stroke="white" stroke-opacity="0.45" stroke-width="0.807378"/>
<mask id="path-12-inside-4_76_16" fill="white">
<path d="M99.2412 105.069C93.2623 98.8355 85.5406 106.06 86.3005 110.123C83.4394 106.689 73.2592 107.502 73.6752 115.921C74.0983 125.389 91.9795 126.395 93.5247 127.142C94.1551 125.735 105.695 111.802 99.2412 105.069Z"/>
</mask>
<path d="M86.3005 110.123L85.6802 110.64L87.6638 113.021L87.0941 109.975L86.3005 110.123ZM73.6752 115.921L74.4818 115.885L74.4816 115.881L73.6752 115.921ZM93.5247 127.142L93.1731 127.869L93.9217 128.231L94.2616 127.472L93.5247 127.142ZM99.2412 105.069L99.8238 104.51C98.2076 102.825 96.4271 102.008 94.6603 101.853C92.9065 101.7 91.2374 102.205 89.8314 103.041C88.4277 103.875 87.2528 105.057 86.4741 106.319C85.7055 107.564 85.2662 108.985 85.5069 110.272L86.3005 110.123L87.0941 109.975C86.9548 109.23 87.1958 108.224 87.8482 107.167C88.4905 106.126 89.4772 105.13 90.6563 104.429C91.8331 103.73 93.1679 103.344 94.5197 103.462C95.8585 103.579 97.2853 104.196 98.6585 105.628L99.2412 105.069ZM86.3005 110.123L86.9208 109.606C86.0514 108.563 84.6879 107.904 83.2235 107.605C81.7476 107.304 80.0874 107.351 78.5341 107.802C76.9785 108.253 75.4977 109.119 74.4333 110.484C73.3617 111.858 72.7563 113.683 72.8688 115.961L73.6752 115.921L74.4816 115.881C74.3862 113.949 74.8972 112.515 75.7068 111.477C76.5236 110.429 77.6887 109.728 78.9837 109.352C80.2812 108.976 81.6764 108.938 82.901 109.187C84.137 109.439 85.119 109.966 85.6802 110.64L86.3005 110.123ZM73.6752 115.921L72.8687 115.957C72.9873 118.612 74.3397 120.647 76.2272 122.189C78.0986 123.717 80.5296 124.792 82.9302 125.57C85.3394 126.351 87.774 126.85 89.6856 127.199C90.6968 127.384 91.4186 127.502 92.0991 127.628C92.4148 127.686 92.6708 127.737 92.8671 127.783C92.965 127.806 93.0409 127.826 93.0977 127.844C93.1587 127.862 93.1784 127.872 93.1731 127.869L93.5247 127.142L93.8763 126.416C93.6915 126.326 93.4529 126.262 93.2364 126.211C93.0009 126.156 92.7138 126.099 92.3918 126.04C91.7971 125.93 90.8651 125.773 89.976 125.611C88.0871 125.266 85.7352 124.782 83.428 124.034C81.1124 123.284 78.8972 122.285 77.2486 120.938C75.6161 119.605 74.5747 117.964 74.4818 115.885L73.6752 115.921ZM93.5247 127.142L94.2616 127.472C94.2612 127.473 94.2644 127.466 94.2733 127.449C94.2819 127.433 94.2939 127.412 94.3098 127.385C94.342 127.331 94.3853 127.262 94.4408 127.176C94.552 127.005 94.6998 126.788 94.8815 126.523C95.2418 125.998 95.7245 125.305 96.2638 124.493C97.3427 122.87 98.6658 120.751 99.7677 118.451C100.866 116.161 101.769 113.641 101.964 111.225C102.161 108.792 101.641 106.405 99.824 104.51L99.2412 105.069L98.6583 105.627C100.069 107.099 100.526 108.979 100.355 111.095C100.182 113.229 99.3707 115.544 98.3115 117.754C97.2563 119.955 95.9796 122.004 94.919 123.599C94.3887 124.397 93.9168 125.076 93.5505 125.609C93.369 125.873 93.2105 126.106 93.0866 126.297C92.9719 126.473 92.8563 126.659 92.7878 126.812L93.5247 127.142Z" fill="white" fill-opacity="0.45" mask="url(#path-12-inside-4_76_16)"/>
</svg>
