<svg width="25" height="25" viewBox="0 0 25 25" fill="none" xmlns="http://www.w3.org/2000/svg">
<path d="M23.75 22.2897V9.87698C23.75 9.65028 23.698 9.42668 23.5982 9.22391C23.4984 9.02114 23.3535 8.84475 23.175 8.70873L13.1125 1.04206C12.8637 0.852482 12.561 0.75 12.25 0.75C11.939 0.75 11.6363 0.852482 11.3875 1.04206L1.325 8.70873C1.14647 8.84475 1.00156 9.02114 0.901761 9.22391C0.801958 9.42668 0.75 9.65028 0.75 9.87698V22.2897C0.75 22.677 0.901451 23.0484 1.17103 23.3223C1.44062 23.5961 1.80625 23.75 2.1875 23.75H7.9375C8.31875 23.75 8.68438 23.5961 8.95397 23.3223C9.22355 23.0484 9.375 22.677 9.375 22.2897V17.9087C9.375 17.5214 9.52645 17.15 9.79603 16.8761C10.0656 16.6023 10.4313 16.4484 10.8125 16.4484H13.6875C14.0687 16.4484 14.4344 16.6023 14.704 16.8761C14.9735 17.15 15.125 17.5214 15.125 17.9087V22.2897C15.125 22.677 15.2765 23.0484 15.546 23.3223C15.8156 23.5961 16.1813 23.75 16.5625 23.75H22.3125C22.6937 23.75 23.0594 23.5961 23.329 23.3223C23.5986 23.0484 23.75 22.677 23.75 22.2897Z" fill="white" stroke="white" stroke-width="1.5" stroke-linecap="round" stroke-linejoin="round"/>
</svg>
