<svg width="17" height="17" viewBox="0 0 17 17" fill="none" xmlns="http://www.w3.org/2000/svg">
<path d="M8.33533 1.38922C9.99333 1.38922 11.5834 2.04786 12.7558 3.22024C13.9282 4.39262 14.5868 5.98272 14.5868 7.64072C14.5868 9.77595 13.4227 11.5236 12.196 12.7774C11.5831 13.397 10.9144 13.9588 10.1983 14.4555L9.90237 14.657L9.76345 14.7494L9.50158 14.9161L9.26819 15.0585L8.97923 15.2266C8.7831 15.3385 8.56116 15.3974 8.33533 15.3974C8.10949 15.3974 7.88756 15.3385 7.69142 15.2266L7.40246 15.0585L7.04127 14.8362L6.9079 14.7494L6.62311 14.5597C5.85059 14.0371 5.13102 13.4401 4.47468 12.7774C3.248 11.5229 2.08383 9.77595 2.08383 7.64072C2.08383 5.98272 2.74247 4.39262 3.91485 3.22024C5.08723 2.04786 6.67733 1.38922 8.33533 1.38922ZM8.33533 5.55688C8.06167 5.55688 7.7907 5.61078 7.53788 5.71551C7.28506 5.82023 7.05534 5.97372 6.86184 6.16722C6.66833 6.36073 6.51484 6.59045 6.41012 6.84327C6.3054 7.09609 6.2515 7.36706 6.2515 7.64072C6.2515 7.91437 6.3054 8.18534 6.41012 8.43816C6.51484 8.69099 6.66833 8.92071 6.86184 9.11421C7.05534 9.30771 7.28506 9.4612 7.53788 9.56593C7.7907 9.67065 8.06167 9.72455 8.33533 9.72455C8.88799 9.72455 9.41802 9.505 9.80882 9.11421C10.1996 8.72341 10.4192 8.19338 10.4192 7.64072C10.4192 7.08805 10.1996 6.55802 9.80882 6.16722C9.41802 5.77643 8.88799 5.55688 8.33533 5.55688Z" fill="#064BB5"/>
</svg>
