<svg width="229" height="33" viewBox="0 0 229 33" fill="none" xmlns="http://www.w3.org/2000/svg">
<g filter="url(#filter0_d_388_206)">
<path d="M24.444 26.64H16.452L7.99201 13.824V26.64H1.22339e-05V1.152H7.99201L16.452 14.184V1.152H24.444V26.64ZM47.7107 16.308C47.7107 16.86 47.6747 17.388 47.6027 17.892H34.7507C34.8707 19.644 35.6027 20.52 36.9467 20.52C37.8107 20.52 38.4347 20.124 38.8187 19.332H47.2787C46.9907 20.772 46.3787 22.068 45.4427 23.22C44.5307 24.348 43.3667 25.248 41.9507 25.92C40.5587 26.568 39.0227 26.892 37.3427 26.892C35.3267 26.892 33.5267 26.472 31.9427 25.632C30.3827 24.792 29.1587 23.592 28.2707 22.032C27.4067 20.448 26.9747 18.6 26.9747 16.488C26.9747 14.376 27.4067 12.54 28.2707 10.98C29.1587 9.396 30.3827 8.184 31.9427 7.344C33.5267 6.504 35.3267 6.084 37.3427 6.084C39.3587 6.084 41.1467 6.504 42.7067 7.344C44.2907 8.16 45.5147 9.336 46.3787 10.872C47.2667 12.408 47.7107 14.22 47.7107 16.308ZM39.6107 14.4C39.6107 13.728 39.3947 13.224 38.9627 12.888C38.5307 12.528 37.9907 12.348 37.3427 12.348C35.9267 12.348 35.0987 13.032 34.8587 14.4H39.6107ZM49.1583 16.488C49.1583 14.352 49.5183 12.504 50.2383 10.944C50.9823 9.36 51.9903 8.16 53.2623 7.344C54.5343 6.504 55.9623 6.084 57.5463 6.084C58.8663 6.084 60.0063 6.36 60.9663 6.912C61.9263 7.44 62.6583 8.172 63.1623 9.108V6.336H71.1183V26.64H63.1623V23.868C62.6583 24.804 61.9263 25.548 60.9663 26.1C60.0063 26.628 58.8663 26.892 57.5463 26.892C55.9623 26.892 54.5343 26.484 53.2623 25.668C51.9903 24.828 50.9823 23.628 50.2383 22.068C49.5183 20.484 49.1583 18.624 49.1583 16.488ZM63.1623 16.488C63.1623 15.408 62.8863 14.568 62.3343 13.968C61.7823 13.368 61.0743 13.068 60.2103 13.068C59.3463 13.068 58.6383 13.368 58.0863 13.968C57.5343 14.568 57.2583 15.408 57.2583 16.488C57.2583 17.568 57.5343 18.408 58.0863 19.008C58.6383 19.608 59.3463 19.908 60.2103 19.908C61.0743 19.908 61.7823 19.608 62.3343 19.008C62.8863 18.408 63.1623 17.568 63.1623 16.488ZM82.699 10.08C83.515 8.904 84.511 7.968 85.687 7.272C86.863 6.552 88.087 6.192 89.359 6.192V14.724H87.091C85.579 14.724 84.463 14.988 83.743 15.516C83.047 16.044 82.699 16.98 82.699 18.324V26.64H74.707V6.336H82.699V10.08ZM117.18 1.152L108.612 26.64H98.2797L89.7117 1.152H98.2077L103.464 18.684L108.684 1.152H117.18ZM138.625 16.308C138.625 16.86 138.589 17.388 138.517 17.892H125.665C125.785 19.644 126.517 20.52 127.861 20.52C128.725 20.52 129.349 20.124 129.733 19.332H138.193C137.905 20.772 137.293 22.068 136.357 23.22C135.445 24.348 134.281 25.248 132.865 25.92C131.473 26.568 129.937 26.892 128.257 26.892C126.241 26.892 124.441 26.472 122.857 25.632C121.297 24.792 120.073 23.592 119.185 22.032C118.321 20.448 117.889 18.6 117.889 16.488C117.889 14.376 118.321 12.54 119.185 10.98C120.073 9.396 121.297 8.184 122.857 7.344C124.441 6.504 126.241 6.084 128.257 6.084C130.273 6.084 132.061 6.504 133.621 7.344C135.205 8.16 136.429 9.336 137.293 10.872C138.181 12.408 138.625 14.22 138.625 16.308ZM130.525 14.4C130.525 13.728 130.309 13.224 129.877 12.888C129.445 12.528 128.905 12.348 128.257 12.348C126.841 12.348 126.013 13.032 125.773 14.4H130.525ZM155.372 6.192C157.7 6.192 159.512 6.972 160.808 8.532C162.128 10.092 162.788 12.204 162.788 14.868V26.64H154.832V15.876C154.832 14.916 154.568 14.16 154.04 13.608C153.536 13.032 152.852 12.744 151.988 12.744C151.1 12.744 150.404 13.032 149.9 13.608C149.396 14.16 149.144 14.916 149.144 15.876V26.64H141.152V6.336H149.144V9.432C149.768 8.472 150.596 7.692 151.628 7.092C152.684 6.492 153.932 6.192 155.372 6.192ZM165.174 16.488C165.174 14.352 165.534 12.504 166.254 10.944C166.998 9.36 168.006 8.16 169.278 7.344C170.55 6.504 171.978 6.084 173.562 6.084C174.882 6.084 176.01 6.36 176.946 6.912C177.906 7.44 178.638 8.172 179.142 9.108V-9.53674e-07H187.134V26.64H179.142V23.868C178.638 24.804 177.906 25.548 176.946 26.1C176.01 26.628 174.882 26.892 173.562 26.892C171.978 26.892 170.55 26.484 169.278 25.668C168.006 24.828 166.998 23.628 166.254 22.068C165.534 20.484 165.174 18.624 165.174 16.488ZM179.178 16.488C179.178 15.408 178.902 14.568 178.35 13.968C177.798 13.368 177.09 13.068 176.226 13.068C175.362 13.068 174.654 13.368 174.102 13.968C173.55 14.568 173.274 15.408 173.274 16.488C173.274 17.568 173.55 18.408 174.102 19.008C174.654 19.608 175.362 19.908 176.226 19.908C177.09 19.908 177.798 19.608 178.35 19.008C178.902 18.408 179.178 17.568 179.178 16.488ZM200.371 26.892C198.331 26.892 196.495 26.472 194.863 25.632C193.231 24.792 191.947 23.592 191.011 22.032C190.099 20.448 189.643 18.6 189.643 16.488C189.643 14.376 190.099 12.54 191.011 10.98C191.947 9.396 193.231 8.184 194.863 7.344C196.495 6.504 198.331 6.084 200.371 6.084C202.411 6.084 204.247 6.504 205.879 7.344C207.511 8.184 208.783 9.396 209.695 10.98C210.631 12.54 211.099 14.376 211.099 16.488C211.099 18.6 210.631 20.448 209.695 22.032C208.783 23.592 207.511 24.792 205.879 25.632C204.247 26.472 202.411 26.892 200.371 26.892ZM200.371 19.98C201.115 19.98 201.739 19.692 202.243 19.116C202.747 18.516 202.999 17.64 202.999 16.488C202.999 15.336 202.747 14.472 202.243 13.896C201.739 13.296 201.115 12.996 200.371 12.996C199.627 12.996 199.003 13.296 198.499 13.896C197.995 14.472 197.743 15.336 197.743 16.488C197.743 17.64 197.983 18.516 198.463 19.116C198.967 19.692 199.603 19.98 200.371 19.98ZM221.601 10.08C222.417 8.904 223.413 7.968 224.589 7.272C225.765 6.552 226.989 6.192 228.261 6.192V14.724H225.993C224.481 14.724 223.365 14.988 222.645 15.516C221.949 16.044 221.601 16.98 221.601 18.324V26.64H213.609V6.336H221.601V10.08Z" fill="#064BB5"/>
</g>
<defs>
<filter id="filter0_d_388_206" x="0" y="0" width="228.261" height="32.892" filterUnits="userSpaceOnUse" color-interpolation-filters="sRGB">
<feFlood flood-opacity="0" result="BackgroundImageFix"/>
<feColorMatrix in="SourceAlpha" type="matrix" values="0 0 0 0 0 0 0 0 0 0 0 0 0 0 0 0 0 0 127 0" result="hardAlpha"/>
<feOffset dy="6"/>
<feComposite in2="hardAlpha" operator="out"/>
<feColorMatrix type="matrix" values="0 0 0 0 0.737255 0 0 0 0 1 0 0 0 0 0.368627 0 0 0 0.2 0"/>
<feBlend mode="normal" in2="BackgroundImageFix" result="effect1_dropShadow_388_206"/>
<feBlend mode="normal" in="SourceGraphic" in2="effect1_dropShadow_388_206" result="shape"/>
</filter>
</defs>
</svg>
