<svg width="28" height="28" viewBox="0 0 28 28" fill="none" xmlns="http://www.w3.org/2000/svg">
<path d="M13.75 0.75C6.5701 0.75 0.75 6.5701 0.75 13.75C0.75 20.9299 6.5701 26.75 13.75 26.75C20.9299 26.75 26.75 20.9299 26.75 13.75C26.75 6.5701 20.9299 0.75 13.75 0.75Z" stroke="white" stroke-width="1.5" stroke-linecap="round" stroke-linejoin="round"/>
<path d="M3.70233 21.4344C3.70233 21.4344 6.60003 17.7346 13.75 17.7346C20.9 17.7346 23.799 21.4344 23.799 21.4344M13.75 13.1846C14.7844 13.1846 15.7764 12.7737 16.5077 12.0423C17.2391 11.3109 17.65 10.3189 17.65 9.28458C17.65 8.25024 17.2391 7.25826 16.5077 6.52687C15.7764 5.79547 14.7844 5.38458 13.75 5.38458C12.7157 5.38458 11.7237 5.79547 10.9923 6.52687C10.2609 7.25826 9.85003 8.25024 9.85003 9.28458C9.85003 10.3189 10.2609 11.3109 10.9923 12.0423C11.7237 12.7737 12.7157 13.1846 13.75 13.1846Z" stroke="white" stroke-width="1.5" stroke-linecap="round" stroke-linejoin="round"/>
</svg>
