<svg width="23" height="23" viewBox="0 0 23 23" fill="none" xmlns="http://www.w3.org/2000/svg">
<path fill-rule="evenodd" clip-rule="evenodd" d="M11.3565 22.258L11.3436 22.26L11.2675 22.295L11.246 22.299L11.231 22.295L11.1549 22.259C11.1435 22.2563 11.1349 22.2583 11.1292 22.265L11.1249 22.275L11.1067 22.703L11.112 22.723L11.1228 22.736L11.2343 22.81L11.2503 22.814L11.2632 22.81L11.3747 22.736L11.3876 22.72L11.3918 22.703L11.3736 22.276C11.3708 22.2653 11.365 22.2593 11.3565 22.258ZM11.6395 22.145L11.6245 22.147L11.4272 22.24L11.4165 22.25L11.4133 22.261L11.4326 22.691L11.4379 22.703L11.4465 22.711L11.662 22.803C11.6756 22.8063 11.6859 22.8037 11.6931 22.795L11.6974 22.781L11.6609 22.167C11.6574 22.1543 11.6502 22.147 11.6395 22.145ZM10.873 22.147C10.8682 22.1443 10.8626 22.1435 10.8572 22.1446C10.8518 22.1457 10.8471 22.1487 10.844 22.153L10.8376 22.167L10.8011 22.781C10.8019 22.793 10.8079 22.801 10.8194 22.805L10.8355 22.803L11.0509 22.71L11.0617 22.702L11.0649 22.691L11.0842 22.261L11.081 22.249L11.0702 22.239L10.873 22.147Z" fill="#064BB5"/>
<path fill-rule="evenodd" clip-rule="evenodd" d="M9.11162 1C9.7334 1 10.3445 1.058 10.933 1.17C11.2117 1.22278 11.4564 1.37664 11.6134 1.59775C11.7704 1.81886 11.8269 2.08909 11.7703 2.349C11.7137 2.60891 11.5488 2.83721 11.3117 2.98368C11.0747 3.13014 10.785 3.18278 10.5063 3.13C9.1561 2.87306 7.75449 2.99534 6.47873 3.48139C5.20297 3.96743 4.11036 4.7954 3.33903 5.86063C2.56769 6.92586 2.15228 8.1805 2.1453 9.46594C2.13833 10.7514 2.54011 12.0099 3.29985 13.0823C4.05958 14.1548 5.14316 14.993 6.41358 15.4911C7.68399 15.9892 9.0842 16.1247 10.4372 15.8805C11.7901 15.6363 13.0351 15.0234 14.0147 14.1193C14.9943 13.2152 15.6645 12.0604 15.9406 10.801C15.9686 10.6723 16.0235 10.55 16.1022 10.4411C16.1808 10.3322 16.2818 10.2388 16.3991 10.1663C16.5165 10.0938 16.648 10.0435 16.7862 10.0184C16.9244 9.99334 17.0665 9.99387 17.2045 10.02C17.3425 10.0461 17.4736 10.0974 17.5903 10.1708C17.707 10.2441 17.8072 10.3383 17.8849 10.4477C17.9626 10.5572 18.0165 10.6799 18.0434 10.8088C18.0703 10.9377 18.0698 11.0703 18.0418 11.199C17.7807 12.3916 17.248 13.518 16.4798 14.502L16.2686 14.762L20.1837 18.414C20.378 18.5935 20.4914 18.8356 20.5007 19.0905C20.51 19.3455 20.4144 19.5942 20.2336 19.7856C20.0528 19.977 19.8004 20.0967 19.528 20.1202C19.2557 20.1437 18.984 20.0692 18.7686 19.912L18.6678 19.828L14.7527 16.176C13.6115 17.015 12.2717 17.5872 10.8451 17.8449C9.41859 18.1026 7.94665 18.0384 6.55212 17.6576C5.15759 17.2768 3.88092 16.5904 2.82861 15.6557C1.7763 14.7211 0.978868 13.5652 0.502849 12.2846C0.0268293 11.004 -0.113976 9.63574 0.0921801 8.29404C0.298336 6.95235 0.845476 5.67609 1.68795 4.57175C2.53043 3.46742 3.64381 2.56702 4.9352 1.94569C6.2266 1.32436 7.65856 1.00012 9.11162 1ZM18.224 0C18.4246 -4.16657e-07 18.6211 0.052478 18.7913 0.151471C18.9615 0.250465 19.0985 0.392002 19.1867 0.56L19.2382 0.677L19.3775 1.055C19.5246 1.45718 19.7616 1.82563 20.0729 2.13594C20.3841 2.44625 20.7624 2.69135 21.1829 2.855L21.3812 2.925L21.7864 3.054C21.9871 3.11786 22.163 3.2358 22.2918 3.3929C22.4206 3.54999 22.4966 3.7392 22.5101 3.93658C22.5237 4.13396 22.4742 4.33065 22.3679 4.50178C22.2616 4.67291 22.1032 4.8108 21.9129 4.898L21.7864 4.946L21.3812 5.076C20.95 5.2132 20.555 5.43428 20.2224 5.72459C19.8897 6.01491 19.6269 6.36783 19.4515 6.76L19.3765 6.945L19.2382 7.323C19.1696 7.51014 19.0431 7.6741 18.8746 7.79416C18.7061 7.91423 18.5032 7.98499 18.2916 7.99752C18.08 8.01004 17.8692 7.96376 17.6858 7.86452C17.5024 7.76528 17.3547 7.61755 17.2613 7.44L17.2099 7.323L17.0705 6.945C16.9234 6.54282 16.6864 6.17437 16.3752 5.86406C16.0639 5.55375 15.6856 5.30865 15.2652 5.145L15.0668 5.075L14.6616 4.946C14.4609 4.88214 14.2851 4.7642 14.1562 4.6071C14.0274 4.45001 13.9514 4.2608 13.9379 4.06342C13.9244 3.86604 13.9739 3.66935 14.0802 3.49822C14.1865 3.32709 14.3448 3.1892 14.5351 3.102L14.6616 3.054L15.0668 2.924C15.498 2.7868 15.893 2.56572 16.2257 2.27541C16.5583 1.98509 16.8211 1.63217 16.9965 1.24L17.0716 1.055L17.2099 0.677C17.2821 0.479587 17.4187 0.308185 17.6005 0.18679C17.7824 0.0653942 18.0004 8.32272e-05 18.224 0ZM18.224 3.196C17.9704 3.4937 17.6812 3.76344 17.3621 4C17.6823 4.23667 17.9696 4.50467 18.224 4.804C18.4777 4.50533 18.765 4.23733 19.0859 4C18.7668 3.76344 18.4776 3.4937 18.224 3.196Z" fill="#064BB5"/>
</svg>
