<svg width="32" height="32" viewBox="0 0 32 32" fill="none" xmlns="http://www.w3.org/2000/svg">
    <path d="M14.6667 2.66668C15.0187 2.66668 15.3667 2.68268 15.7107 2.71468C15.2494 3.52731 14.9339 4.4145 14.7787 5.33601L14.6667 5.33334C9.51075 5.33334 5.33341 9.50934 5.33341 14.6667C5.33341 19.824 9.51075 24 14.6667 24C17.0941 24.0031 19.4266 23.0576 21.1667 21.3653L21.3667 21.1653C23.0582 19.4253 24.0031 17.0934 24.0001 14.6667L23.9961 14.5533C24.9177 14.3977 25.8049 14.0819 26.6174 13.62C26.8921 16.6907 25.9691 19.7487 24.0414 22.1547L29.7521 27.8653L27.8654 29.7507L22.1561 24.0413C20.0317 25.7443 17.3894 26.6706 14.6667 26.6667C8.04275 26.6667 2.66675 21.2907 2.66675 14.6667C2.66675 8.04268 8.04275 2.66668 14.6667 2.66668ZM22.0401 1.75868C22.0906 1.63385 22.1772 1.52694 22.2889 1.45167C22.4005 1.3764 22.5321 1.33618 22.6667 1.33618C22.8014 1.33618 22.933 1.3764 23.0446 1.45167C23.1563 1.52694 23.2429 1.63385 23.2934 1.75868L23.6321 2.57334C24.1984 3.95294 25.272 5.06291 26.6321 5.67468L27.5894 6.10134C27.7122 6.15782 27.8162 6.24832 27.8891 6.3621C27.962 6.47589 28.0008 6.6082 28.0008 6.74334C28.0008 6.87848 27.962 7.01079 27.8891 7.12458C27.8162 7.23837 27.7122 7.32887 27.5894 7.38534L26.5761 7.83601C25.2499 8.43111 24.1948 9.50145 23.6187 10.836L23.2894 11.5907C23.2382 11.7136 23.1517 11.8185 23.0409 11.8924C22.9301 11.9662 22.7999 12.0056 22.6667 12.0056C22.5336 12.0056 22.4034 11.9662 22.2926 11.8924C22.1818 11.8185 22.0953 11.7136 22.0441 11.5907L21.7161 10.8373C21.1397 9.50181 20.0835 8.43089 18.7561 7.83601L17.7427 7.38534C17.62 7.32887 17.516 7.23837 17.4431 7.12458C17.3702 7.01079 17.3314 6.87848 17.3314 6.74334C17.3314 6.6082 17.3702 6.47589 17.4431 6.3621C17.516 6.24832 17.62 6.15782 17.7427 6.10134L18.7001 5.67468C20.0606 5.06318 21.1348 3.95318 21.7014 2.57334L22.0401 1.75868Z" fill="white"/>
</svg>
